<?xml version="1.0" standalone="no"?>
<!DOCTYPE svg PUBLIC "-//W3C//DTD SVG 1.1//EN" "http://www.w3.org/Graphics/SVG/1.1/DTD/svg11.dtd" >
<svg xmlns="http://www.w3.org/2000/svg">
<metadata>Generated by IcoMoon</metadata>
<defs>
<font id="moth-luna" horiz-adv-x="1024">
<font-face units-per-em="1024" ascent="960" descent="-64" />
<missing-glyph horiz-adv-x="1024" />
<glyph unicode="&#x20;" horiz-adv-x="512" d="" />
<glyph unicode="&#x21;" glyph-name="moth-logo" horiz-adv-x="2756" d="M1280.078 650.358c-154.978 0-281.010-120.714-281.010-269.272v-168.29c0-148.598 126.030-269.39 281.010-269.39 154.86 0 281.010 120.754 281.010 269.39v168.29c0 148.558-126.148 269.272-281.010 269.272zM1103.596 381.086c0 90.86 79.202 164.786 176.444 164.786 97.24 0 176.444-73.924 176.444-164.786v-168.29c0-90.86-79.242-164.864-176.444-164.864-97.28 0-176.444 74.004-176.444 164.864v168.29zM626.884 654.77c-74.634 0-145.33-38.952-191.764-104.212-46.040 65.22-116.932 104.212-191.408 104.212-134.46 0-243.712-120.912-243.712-269.55v-387.86c0-28.908 23.316-52.46 52.302-52.46 28.83 0 52.264 23.552 52.264 52.46v387.86c0 91.018 62.582 164.942 139.146 164.942 76.878 0 139.342-73.924 139.342-164.942v-387.86c0-28.908 23.394-52.46 52.028-52.46 29.144 0 52.46 23.552 52.46 52.46v387.86c0 91.018 62.66 164.942 139.304 164.942 76.76 0 139.186-73.924 139.186-164.942v-387.86c0-28.908 23.592-52.46 52.342-52.46 28.672 0 52.342 23.552 52.342 52.46v387.86c0.038 148.638-109.372 269.55-243.832 269.55zM2475.954 650.358c-64.276 0-126.11-22.174-176.482-61.518 0 21.858 0 311.374 0 311.374 0 28.868-23.316 52.382-52.382 52.382-28.672 0-51.908-23.512-51.908-52.382v-896.474c0-28.75 23.276-52.224 51.988-52.224 29.066 0 52.302 23.474 52.302 52.224v377.304c0 90.86 79.242 164.786 176.482 164.786 97.358 0 176.364-74.004 176.364-164.786v-377.304c0-28.75 23.592-52.224 52.224-52.224 29.144 0 52.382 23.474 52.382 52.224v377.304c0 148.6-126.072 269.314-280.97 269.314zM2047.054 602.072c0 0-118.98 0-130.126 0 0 11.698 0 296.644 0 296.644 0 28.868-23.394 52.302-52.42 52.302-28.632 0-52.106-23.434-52.106-52.302 0 0 0-284.948 0-296.644-11.146 0-130.088 0-130.088 0-28.948 0-52.54-23.592-52.54-52.618 0-28.948 23.592-52.618 52.54-52.618l101.692 0.158c15.36 0 27.924-12.288 28.396-27.57v-468.952c0-28.75 23.512-52.382 52.106-52.382 29.026 0 52.42 23.63 52.42 52.382v468.716c0.472 15.242 13.43 27.806 28.632 27.806l101.494-0.158c28.948 0 52.578 23.67 52.578 52.618 0.002 29.028-23.63 52.618-52.578 52.618z" />
<glyph unicode="&#x23;" glyph-name="down" horiz-adv-x="1988" d="M0 891.243v68.757h68.439l923.509-923.429 923.23 923.429h73.171v-68.757l-950.749-955.243h-86.772z" />
<glyph unicode="&#x24;" glyph-name="search" d="M992.262 88.604l-242.552 206.294c-25.074 22.566-51.89 32.926-73.552 31.926 57.256 67.068 91.842 154.078 91.842 249.176 0 212.078-171.922 384-384 384-212.076 0-384-171.922-384-384s171.922-384 384-384c95.098 0 182.108 34.586 249.176 91.844-1-21.662 9.36-48.478 31.926-73.552l206.294-242.552c35.322-39.246 93.022-42.554 128.22-7.356s31.892 92.898-7.354 128.22zM384 320c-141.384 0-256 114.616-256 256s114.616 256 256 256 256-114.616 256-256-114.614-256-256-256z" />
<glyph unicode="&#x2a;" glyph-name="mark" horiz-adv-x="928" d="M924.087-5.68l-435.135 941.841c-6.77 14.672-21.969 24.076-37.721 23.839-16.174-0.184-30.741-9.825-37.221-24.656l-410.585-941.841c-5.532-12.697-4.294-27.316 3.293-38.933 7.586-11.564 20.494-18.571 34.349-18.571h845.721c14.014 0 27.053 7.139 34.586 18.966s8.587 26.631 2.713 39.354zM452.758 818.651l170.904-369.888-168.744-337.145-163.37 337.277 161.21 369.756zM248.321 349.72l160.578-331.534h-305.114l144.536 331.534zM499.988 18.186l167.769 335.143 154.835-335.143h-322.605z" />
<glyph unicode="&#x2b;" glyph-name="plus" d="M918.912 552.96h-301.952v302.080c0 57.984-46.848 104.96-104.96 104.96-57.984 0-105.088-46.976-105.088-104.96v-302.080h-301.952c-57.984 0-104.96-46.976-104.96-104.96 0-58.112 46.976-105.088 104.96-105.088h301.824v-301.952c0.128-57.984 47.232-104.96 105.216-104.96 58.112 0 104.96 46.976 104.96 104.96v301.952h301.824c58.24 0 105.216 46.976 105.216 105.088 0 57.984-46.976 104.96-105.088 104.96z" />
<glyph unicode="&#x5e;" glyph-name="top" horiz-adv-x="1988" d="M1988.35 4.757v-68.757h-68.439l-923.509 923.429-923.23-923.429h-73.171v68.757l950.749 955.243h86.772z" />
<glyph unicode="&#x61;" glyph-name="award" horiz-adv-x="1084" d="M930.282 597.048c-25.292-49.382-53.898-97.108-86.72-142.126-32.836-44.85-69.706-87.172-111.562-124.358-41.854-37.338-88.526-69.706-139.716-93.796-4.368-2.108-8.732-4.066-13.25-6.006 12.648-2.862 25.444-4.968 38.242-6.624 12.948-1.356 26.798-2.244 38.694-1.656h0.452c7.98 0.452 14.904-5.554 15.372-13.536s-5.57-14.904-13.702-15.372h-0.452c-15.808-0.302-29.66 1.204-44.112 3.328-14.152 2.244-28.154 5.268-42.004 8.882-10.69 2.846-21.38 6.172-31.768 9.936-8.882-3.162-18.066-6.022-27.25-8.446-13.85-3.764-27.852-6.774-42.004-8.882-14.452-2.108-28.304-3.764-44.112-3.312-7.98 0.15-14.302 6.774-14.152 14.738 0.15 7.98 6.774 14.302 14.754 14.152h1.054c11.894-0.752 25.744 0.15 38.694 1.656 11.292 1.356 22.584 3.312 33.724 5.72-3.012 1.204-5.87 2.56-8.732 3.916-51.188 24.088-97.86 56.458-139.716 93.782-41.854 37.338-78.74 79.492-111.562 124.524-32.82 45.016-61.426 92.742-86.72 141.974-0.752 1.506-0.15 3.162 1.204 3.916 1.356 0.752 3.012 0.15 3.764-1.204 26.95-48.178 57.060-94.55 90.936-137.758s71.664-83.408 113.67-118.336c42.004-34.778 88.376-64.422 138.060-85.818 12.496-5.404 25.292-10.238 38.242-14.604 14.604 4.682 29.058 10.088 43.208 16.108 49.534 21.38 95.904 50.886 137.908 85.818 42.004 34.914 79.794 74.962 113.67 118.336 33.874 43.208 63.986 89.58 90.936 137.758 0.752 1.356 2.41 1.808 3.916 1.054 1.336-0.752 1.788-2.408 1.034-3.764zM217.958 380.55c-33.452-10.328-63.534-49.956-63.534-49.956s47.832-1.416 81.3 8.912c33.468 10.328 41.99 23.41 37.082 34.732-4.878 11.312-21.378 16.656-54.848 6.312zM236.568 336.784c21.304 6.594 34.342 14.754 38.738 24.314 2.124 4.592 2.184 9.53 0.12 14.226-2.65 6.172-9.5 13.55-26.844 13.55-8.732 0-19.316-1.882-31.482-5.614-33.89-10.524-63.684-49.338-64.934-51.022-0.662-0.828-0.752-1.972-0.316-2.906 0.436-0.964 1.416-1.582 2.484-1.582 0 0 2.214-0.090 5.992-0.090 14.048 0.016 49.594 0.89 76.242 9.124zM160.328 333.352c8.898 10.554 32.88 36.584 58.462 44.488 11.624 3.584 21.65 5.404 29.796 5.404 7.858 0 18.006-1.762 21.65-10.178 1.416-3.268 1.386-6.414-0.060-9.62-2.544-5.494-10.72-13.672-35.29-21.26-25.916-7.992-60.768-8.834-74.558-8.834v0zM390.392 403.36c26.768 19.844 45.83 54.756 45.83 54.756s-53.176-2.064-79.96-21.922c-26.784-19.814-29.162-34.612-19.754-43.69s27.112-8.986 53.884 10.856zM392.076 401.072c26.994 19.994 45.86 54.244 46.658 55.706 0.496 0.904 0.466 1.988-0.076 2.832-0.542 0.874-1.716 1.356-2.53 1.356-2.198-0.090-54.366-2.32-81.54-22.494-16.5-12.21-25.202-23.546-25.88-33.634-0.346-5.374 1.686-10.358 5.856-14.378 4.548-4.382 10.404-6.608 17.388-6.608 11.202-0.018 24.708 5.808 40.124 17.22zM388.674 405.632c-22.088-16.41-40.486-20.386-50.212-11.052-2.966 2.846-4.368 6.172-4.112 9.906 0.376 5.736 4.772 15.492 23.606 29.464 20.912 15.476 59.17 19.888 73.124 21.004-6.092-10.026-22.066-34.264-42.406-49.322zM187.006 433.906c-28.892-6.322-64.196-40.486-64.196-40.486s46.13-1.326 75.068 5.028c28.922 6.292 37.322 16.56 34.312 26.378-2.984 9.788-16.22 15.376-45.184 9.080zM198.356 396.102c18.534 4.036 30.202 9.966 34.702 17.676 2.154 3.674 2.636 7.708 1.4 11.728-1.85 6.144-7.872 13.46-25.91 13.46-6.338 0-13.732-0.934-22.012-2.74-29.254-6.352-63.896-39.672-65.386-41.088-0.662-0.678-0.888-1.672-0.558-2.59 0.346-0.888 1.204-1.476 2.154-1.506 0 0 4.066-0.15 10.524-0.15 15.494 0.032 44.536 0.71 65.086 5.21zM187.548 431.59c7.934 1.732 15.010 2.59 21.004 2.59 8.356 0 18.834-1.732 21.394-10.058 0.858-2.8 0.542-5.404-0.934-7.904-2.636-4.502-10.238-10.826-31.648-15.462-22.268-4.846-55.118-5.178-68.518-5.028 10.208 9.106 36.614 31.044 58.702 35.862zM333.918 447.368c23.742 15.31 34.658 61.486 34.658 61.486s-37.308-17.072-61.004-32.368c-23.712-15.372-26.694-27.582-19.422-35.606 7.27-8.058 22.054-8.856 45.768 6.488zM335.212 445.35c24.254 15.688 35.214 61.034 35.652 62.962 0.226 0.888-0.090 1.822-0.798 2.394-0.708 0.588-1.672 0.708-2.514 0.316-0.346-0.166-37.684-17.314-61.26-32.55-14.738-9.53-22.78-18.624-23.892-27.084-0.588-4.428 0.798-8.626 3.976-12.12 3.794-4.202 9.26-6.444 15.732-6.444 9.074-0.002 20.232 4.23 33.104 12.526zM332.622 449.37c-19.768-12.752-35.2-15.22-42.726-6.94-2.258 2.5-3.208 5.314-2.8 8.356 0.632 4.786 4.922 12.814 21.74 23.666 18.398 11.91 45.362 25.006 56.082 30.066-3.54-12.104-14.124-43.406-32.296-55.148zM158.054 482.988c-27.582-4.080-63.128-34.628-63.128-34.628s42.562-3.282 70.112 0.814c27.596 4.066 36.344 13.16 34.402 22.494-1.912 9.348-13.82 15.4-41.386 11.32zM165.356 446.916c17.706 2.65 29.178 7.482 34.010 14.422 2.274 3.238 3.056 6.97 2.244 10.796-1.1 5.358-6.188 14.378-27.778 14.378-4.772 0-10.222-0.436-16.108-1.326-27.882-4.096-62.782-33.89-64.272-35.17-0.662-0.572-0.918-1.52-0.662-2.394 0.286-0.828 1.054-1.43 1.942-1.52 0.18 0 16.456-1.25 35.184-1.25 14.24 0.016 26.15 0.694 35.44 2.064zM158.37 480.776c22.72 3.344 36.962-0.24 38.888-9.576 0.542-2.65 0.046-5.058-1.536-7.286-2.832-4.080-10.54-9.546-31-12.572-9.078-1.326-20.792-2.018-34.792-2.018-11.924 0-22.87 0.482-29.178 0.874 10.222 8.1 36.57 27.46 57.618 30.578zM301.908 491.6c19.18 17.208 31.106 44.188 31.106 44.188s-41.492-3.404-60.704-20.626c-19.18-17.178-19.784-28.892-11.624-35.41 8.192-6.52 21.996-5.374 41.222 11.848zM303.384 489.944c19.346 17.298 31.18 43.826 31.678 44.926 0.316 0.738 0.226 1.566-0.24 2.214-0.452 0.632-1.234 1.008-2.002 0.934-1.716-0.166-42.456-3.704-61.998-21.198-11.714-10.51-17.554-19.828-17.314-27.702 0.12-4.336 2.138-8.19 5.81-11.142 3.448-2.74 7.572-4.112 12.21-4.112 9.226-0.014 19.932 5.39 31.856 16.080zM300.402 493.256c-15.884-14.212-29.84-18.518-38.302-11.774-2.666 2.124-4.066 4.712-4.142 7.754-0.12 4.472 2.514 12.316 15.838 24.268 15.024 13.46 44.774 18.278 55.48 19.618-3.924-7.828-14.344-26.828-28.874-39.866zM133.798 526.468c-24.78-3.674-58.040-10.946-58.040-10.946s39.536-23.14 64.318-19.468c24.796 3.66 32.64 11.834 30.924 20.22-1.744 8.418-12.404 13.854-37.202 10.194zM140.378 494.070c15.914 2.35 26.182 6.7 30.548 12.948 2.032 2.906 2.74 6.262 2.032 9.696-0.978 4.816-5.554 12.934-24.946 12.934-4.322 0-9.184-0.406-14.482-1.204-24.586-3.63-57.86-10.886-58.19-10.946-0.784-0.18-1.416-0.844-1.536-1.656-0.136-0.828 0.24-1.612 0.978-2.032 1.386-0.844 34.702-20.16 59.652-20.16 2.104 0.014 4.078 0.134 5.944 0.42zM134.098 524.496c20.37 3.026 33.196-0.226 34.914-8.612 0.512-2.38 0.046-4.518-1.356-6.564-2.576-3.66-9.454-8.536-27.852-11.262-1.672-0.256-3.478-0.406-5.374-0.406-18.548 0-42.878 11.744-52.964 17.072 10.372 2.184 34.010 7.018 52.632 9.772zM260.536 529.526c19.332 13.596 28.998 48.676 28.998 48.676s-33.076-11.338-52.378-24.946c-19.332-13.596-21.304-24.012-14.844-30.548 6.426-6.582 18.894-6.778 38.224 6.818zM261.682 527.9c19.708 13.82 29.404 48.314 29.78 49.774 0.18 0.708 0 1.49-0.572 1.988-0.528 0.512-1.326 0.678-2.018 0.436-1.34-0.466-33.558-11.608-52.89-25.232-11.924-8.416-18.338-16.29-18.97-23.396-0.346-3.78 0.978-7.286 3.824-10.192 3.208-3.222 7.572-4.952 12.662-4.952 7.812 0.010 17.298 3.896 28.184 11.574zM259.378 531.166c-15.958-11.232-29.012-13.804-35.666-7.076-2.018 2.064-2.922 4.428-2.71 7.016 0.376 4.066 3.69 10.916 17.314 20.506 15.054 10.614 38.934 19.948 48.134 23.336-3.104-9.304-12.228-33.332-27.072-43.782zM118.11 567.48c-20.972-0.828-56.564-10.826-56.564-10.826s26.858-11.82 47.878-10.99c20.988 0.874 38.664 2.996 38.242 10.102-0.378 7.106-8.568 12.558-29.556 11.714zM109.498 543.978c22.826 0.934 34.266 3.208 38.272 7.572 1.144 1.264 1.672 2.71 1.582 4.292-0.302 5.314-4.802 14.348-31.302 13.31-20.942-0.828-55.494-10.478-56.94-10.9-0.692-0.196-1.174-0.784-1.22-1.49-0.060-0.678 0.332-1.356 0.978-1.642 1.040-0.452 25.64-11.186 46.342-11.186 0.782-0.002 1.536 0.028 2.288 0.044zM118.186 565.794c17.6 0.768 27.432-2.952 27.808-10.118 0.046-0.678-0.18-1.28-0.708-1.868-4.246-4.666-22.554-5.946-35.952-6.458-15.25-0.542-33.994 5.736-42.502 8.988 10.418 2.696 35.35 8.808 51.354 9.456zM234.22 567.872c15.612 11.85 22.118 42.532 22.118 42.516 0 0-26.92-11.502-42.532-23.366s-16.908-20.596-11.246-25.88c5.628-5.314 16.032-5.164 31.66 6.73zM235.242 566.532c15.884 12.076 22.988 43.434 22.674 44.384-0.166 0.436-0.482 0.798-0.918 0.994-0.452 0.196-0.918 0.196-1.326 0-1.1-0.466-27.296-11.684-42.878-23.562-9.606-7.332-14.664-14.046-14.934-19.994-0.196-3.192 1.054-6.112 3.568-8.462 2.65-2.5 6.066-3.78 10.072-3.78 6.654 0.002 14.634 3.526 23.742 10.42zM233.212 569.212c-12.918-9.816-23.682-12.316-29.51-6.864-1.792 1.702-2.62 3.66-2.544 5.87 0.196 3.358 2.71 9.154 13.672 17.48 12.15 9.26 31.588 18.428 39.084 21.802-2.14-8.118-8.6-29.088-20.702-38.288zM107.828 607.046c-17.796 4.922-56.308-10.766-56.308-10.766s30.052-6.158 47.832-11.096c17.81-4.908 26.362-1.852 28.712 4.186 2.318 6.038-2.456 12.768-20.236 17.676zM129.448 588.814c0.978 2.514 0.844 5.072-0.346 7.468-2.484 4.968-9.53 9.064-20.882 12.21-2.424 0.692-5.328 1.008-8.612 1.008-19.392 0-47.426-11.338-48.63-11.82-0.588-0.272-0.994-0.858-0.934-1.52s0.542-1.174 1.174-1.326c0.302-0.076 30.186-6.218 47.742-11.052 6.022-1.672 11.308-2.514 15.688-2.514 9.816-0.012 13.46 4.098 14.8 7.546zM99.592 606.518c3.012 0 5.646-0.316 7.828-0.918 13.114-3.614 17.554-7.798 19-10.674 0.858-1.626 0.918-3.298 0.256-5.042-1.822-4.666-7.528-5.646-12.014-5.646-4.112 0-9.138 0.814-14.904 2.41-13.31 3.66-33.604 8.1-42.938 10.042 8.898 3.264 28.59 9.828 42.772 9.828zM209.272 608.672c10.856 12.904 18.79 23.14 18.79 23.14s-30.126 3.072-40.952-9.832c-10.87-12.874-9.952-20.702-3.84-24.39 6.128-3.656 15.146-1.79 26.002 11.082zM210.402 607.724c10.766 12.768 18.76 23.080 18.834 23.184 0.346 0.422 0.422 0.994 0.196 1.506-0.196 0.496-0.692 0.844-1.22 0.888-0.136 0.016-3.282 0.332-7.904 0.332-9.47 0-26.542-1.386-34.372-10.674-6.504-7.738-9.38-14.286-8.536-19.498 0.496-2.952 2.258-5.434 5.088-7.12 2.078-1.28 4.382-1.898 6.82-1.898 6.506 0.002 13.792 4.592 21.094 13.28zM225.17 630.548c-2.922-3.734-9.26-11.638-17.012-20.898-9.034-10.704-17.75-14.588-24.118-10.766-2.094 1.264-3.312 2.966-3.66 5.072-0.708 4.202 2.002 10.118 7.874 17.072 7.030 8.386 23.124 9.62 32.054 9.62 1.912 0.006 3.568-0.070 4.862-0.1zM150.3 654.47c-8.070 19.994-20.536 44.564-20.536 44.564s-21.892-34.506-13.79-54.5c8.084-19.948 18.79-25.172 28.29-22.478 9.452 2.77 14.136 12.466 6.036 32.414zM144.788 620.144c4.562 1.326 7.964 4.066 9.846 7.95 3.072 6.352 2.228 15.462-2.5 27.13-8.010 19.828-20.476 44.474-20.596 44.714-0.316 0.618-0.978 1.040-1.686 1.084-0.678 0.076-1.386-0.316-1.762-0.934-0.934-1.446-22.328-35.606-13.97-56.262 8.174-20.19 18.398-24.434 25.504-24.434 1.718 0 3.432 0.27 5.164 0.752zM148.464 653.762c4.216-10.434 5.118-18.684 2.59-23.908-1.4-2.862-3.87-4.862-7.362-5.87-9.892-2.846-19.136 4.696-25.88 21.334-6.232 15.416 6.82 40.786 11.804 49.578 3.64-7.348 12.614-25.73 18.848-41.134zM264.932 330.522c-35.606-12.15-64.106-61.666-64.106-61.666s49.414 5.796 85.034 17.962c35.606 12.15 44.262 26.498 38.468 38.572-5.754 12.072-23.774 17.31-59.396 5.132zM201.202 265.798c0.496 0.060 50.12 5.992 85.636 18.112 22.66 7.738 36.36 16.938 40.726 27.37 2.124 5.028 1.958 10.374-0.452 15.402-2.996 6.292-10.254 13.82-27.702 13.82-9.756 0-21.68-2.38-35.47-7.090-36.284-12.406-64.558-60.99-65.732-63.052-0.602-1.024-0.558-2.258 0.076-3.208 0.588-0.888 1.536-1.416 2.544-1.416 0.104 0.032 0.238 0.062 0.374 0.062zM321.586 324.092c1.656-3.554 1.808-6.94 0.316-10.434-2.514-6.022-10.976-14.994-37.052-23.938-27.432-9.35-63.55-14.964-78.018-16.968 8.462 12.964 31.844 45.574 59.078 54.878 13.13 4.502 24.404 6.76 33.468 6.76 11.308-0.014 18.97-3.568 22.208-10.298zM453.67 359.080c28.124 22.118 42.246 52.136 42.246 52.136s-52.136 4.502-80.29-17.644c-28.094-22.118-30.126-38.166-19.588-47.666 10.462-9.528 29.508-8.97 57.632 13.174zM455.564 356.674c28.35 22.314 42.532 51.986 43.088 53.252 0.452 0.888 0.406 1.942-0.106 2.832-0.512 0.858-1.4 1.416-2.394 1.536 0 0-4.428 0.376-11.442 0.376-17.676 0-50.332-2.44-70.986-18.668-17.298-13.612-26.242-26.046-26.648-36.902-0.196-5.856 2.198-11.202 6.85-15.402 4.892-4.442 10.99-6.7 18.126-6.7 12.288-0.032 26.922 6.606 43.512 19.676zM490.992 408.418c-4.878-8.852-18.036-30.292-39.22-46.928-23.23-18.292-42.862-23.11-53.702-13.326-3.344 3.056-4.968 6.638-4.816 10.704 0.196 6.142 4.592 16.816 24.268 32.294 19.212 15.084 50.346 17.344 67.224 17.344 2.436 0.002 4.56-0.058 6.246-0.088zM319.976 272.798c-37.82-15.852-65.868-71.362-65.868-71.362s55.33 9.064 93.148 24.932c37.85 15.852 45.904 32.172 38.346 44.986-7.512 12.826-27.776 17.268-65.626 1.444zM254.68 198.108c0.558 0.12 56.142 9.32 93.886 25.142 23.922 10.028 37.986 21.018 41.898 32.67 1.912 5.796 1.234 11.728-1.942 17.148-3.538 6.052-11.232 13.234-27.702 13.234-11.472 0-25.624-3.494-42.094-10.404-38.558-16.14-66.41-70.58-67.6-72.928-0.558-1.114-0.436-2.47 0.316-3.494 0.648-0.888 1.626-1.386 2.696-1.386 0.164-0.012 0.36 0.018 0.542 0.018zM382.696 269.652c2.244-3.794 2.696-7.618 1.356-11.594-2.228-6.67-10.63-17.118-38.090-28.576-29.238-12.256-69.586-20.522-85.516-23.47 8.416 14.618 31.858 51.52 60.838 63.67 15.658 6.564 28.952 9.906 39.522 9.906 10.676 0 18.038-3.344 21.89-9.936zM811.178 375.688c-4.908-11.382 3.674-24.404 37.112-34.732s81.3-8.942 81.3-8.942-30.112 39.672-63.55 49.986c-33.454 10.34-49.954 5.008-54.862-6.312zM929.65 329.166c1.084 0.060 2.032 0.648 2.47 1.612 0.466 0.964 0.376 2.094-0.302 2.936-1.234 1.642-31 40.516-64.95 50.992-12.15 3.734-22.734 5.676-31.466 5.676-17.344 0-24.148-7.376-26.814-13.582-2.064-4.696-2.032-9.65 0.090-14.256 4.412-9.53 17.434-17.736 38.754-24.284 26.694-8.236 62.224-9.138 76.212-9.138 3.838 0 6.006 0.044 6.006 0.044zM865.198 379.316c25.578-7.904 49.578-33.964 58.462-44.518-13.762 0-48.614 0.888-74.54 8.882-24.524 7.558-32.73 15.732-35.26 21.29-1.476 3.148-1.506 6.292-0.090 9.59 3.644 8.386 13.79 10.178 21.65 10.178 8.156-0.016 18.184-1.838 29.778-5.422zM747.508 393.98c9.41 9.064 7.030 23.818-19.754 43.66-26.784 19.858-79.974 21.952-79.974 21.952s19.090-34.974 45.844-54.756c26.784-19.858 44.444-19.934 53.884-10.856zM749.48 391.888c4.142 4.066 6.172 9.034 5.826 14.408-0.618 10.118-9.35 21.38-25.88 33.664-27.176 20.114-79.312 22.374-81.54 22.448-1.144 0.18-1.972-0.466-2.53-1.34-0.528-0.874-0.558-1.942-0.090-2.832 0.798-1.476 19.708-35.742 46.672-55.706 15.402-11.442 28.906-17.238 40.138-17.238v0c7.002 0.018 12.858 2.244 17.404 6.596zM726.084 435.412c18.79-14 23.2-23.756 23.576-29.464 0.24-3.734-1.174-7.090-4.142-9.906-3.448-3.388-7.994-5.058-13.446-5.058v0c-9.816 0-22.554 5.584-36.72 16.108-20.326 15.054-36.344 39.296-42.396 49.292 13.928-1.098 52.216-5.494 73.128-20.972zM851.812 426.274c-2.966-9.756 5.434-20.084 34.312-26.408 28.938-6.262 75.068-4.968 75.068-4.968s-35.32 34.176-64.226 40.47c-28.892 6.338-42.158 0.692-45.154-9.094zM961.296 392.506c0.934 0.060 1.762 0.648 2.124 1.536s0.15 1.912-0.558 2.56c-1.476 1.416-36.104 34.732-65.342 41.102-8.326 1.792-15.702 2.71-22.028 2.71-18.052 0-24.088-7.316-25.94-13.446-1.234-4.036-0.768-8.084 1.356-11.728 4.562-7.708 16.23-13.642 34.732-17.706 20.552-4.472 49.638-5.148 65.1-5.148v0c6.492 0.014 10.556 0.12 10.556 0.12zM896.482 433.064c22.088-4.786 48.494-26.754 58.688-35.878-13.386-0.12-46.22 0.18-68.518 4.998-21.38 4.682-29.028 10.99-31.648 15.492-1.476 2.53-1.792 5.118-0.918 7.904 2.5 8.326 13.024 10.058 21.38 10.058 5.99 0.016 13.052-0.872 21.016-2.574zM795.88 442.322c7.226 8.024 4.292 20.28-19.436 35.622-23.726 15.326-60.99 32.368-60.99 32.368s10.916-46.16 34.612-61.516c23.76-15.326 38.528-14.528 45.814-6.474zM797.642 440.698c3.178 3.524 4.532 7.738 3.976 12.136-1.084 8.462-9.168 17.584-23.878 27.1-23.606 15.25-60.93 32.384-61.306 32.564-0.828 0.376-1.792 0.24-2.5-0.316-0.678-0.588-0.994-1.52-0.828-2.41 0.466-1.928 11.442-47.29 35.666-62.962 12.874-8.31 24.028-12.496 33.106-12.496v0c6.536 0.014 11.956 2.214 15.764 6.384zM775.12 475.928c16.846-10.886 21.138-18.91 21.756-23.712 0.406-3.026-0.528-5.826-2.8-8.296-7.498-8.326-22.93-5.856-42.726 6.894-18.172 11.744-28.726 43.058-32.294 55.178 10.732-5.058 37.696-18.172 56.064-30.064zM884.574 473.112c-1.942-9.35 6.82-18.458 34.372-22.524 27.582-4.080 70.128-0.798 70.128-0.798s-35.546 30.578-63.098 34.628c-27.582 4.080-39.462-1.942-41.402-11.306zM989.224 447.594c0.934 0.030 1.672 0.648 1.972 1.52 0.302 0.858 0.030 1.792-0.648 2.394-1.476 1.264-36.374 31.046-64.258 35.124-5.946 0.888-11.352 1.34-16.14 1.34-21.59 0-26.664-9.048-27.762-14.408-0.798-3.794 0-7.528 2.228-10.78 4.846-6.94 16.26-11.774 33.994-14.392 9.29-1.37 21.228-2.078 35.41-2.078h0.030c18.734 0.014 35.024 1.264 35.174 1.28zM925.614 482.236c21.048-3.102 47.366-22.478 57.634-30.564-6.322-0.362-17.254-0.874-29.194-0.874h-0.030c-13.97 0-25.67 0.662-34.732 2.002-20.492 3.026-28.17 8.492-31 12.542-1.582 2.288-2.094 4.696-1.536 7.332 1.416 6.956 9.726 10.84 23.38 10.84 4.578 0.002 9.818-0.434 15.478-1.278zM823.296 481.196c8.174 6.518 7.588 18.232-11.608 35.426-19.196 17.224-60.688 20.656-60.688 20.656s11.94-27.010 31.136-44.202c19.166-17.238 33.016-18.382 41.16-11.88zM824.668 479.434c3.674 2.922 5.706 6.774 5.826 11.126 0.24 7.888-5.584 17.224-17.314 27.718-19.498 17.494-60.282 21.064-62.014 21.184-0.798 0.076-1.536-0.286-1.972-0.918-0.466-0.648-0.558-1.49-0.24-2.214 0.528-1.114 12.346-27.626 31.678-44.94 11.91-10.674 22.644-16.078 31.844-16.078v0c4.664-0.002 8.76 1.4 12.192 4.122zM810.17 514.966c13.386-11.97 15.988-19.784 15.914-24.284-0.12-3.026-1.506-5.646-4.172-7.768-2.65-2.108-5.826-3.162-9.44-3.162v0c-7.964 0-17.962 5.178-28.876 14.964-14.528 13.008-24.932 32.040-28.846 39.868 10.674-1.34 40.422-6.158 55.42-19.618zM913.014 517.766c-1.732-8.43 6.142-16.606 30.91-20.25 24.766-3.66 64.332 19.482 64.332 19.482s-33.226 7.272-58.040 10.93c-24.768 3.66-35.472-1.776-37.202-10.162zM1009.248 515.266c0.708 0.422 1.114 1.22 0.964 2.032-0.12 0.828-0.738 1.49-1.536 1.656-0.346 0.076-33.634 7.316-58.19 10.96-5.328 0.784-10.208 1.174-14.498 1.174-19.376 0-23.968-8.114-24.962-12.918-0.708-3.434 0-6.804 2.032-9.726 4.382-6.202 14.648-10.584 30.548-12.918 1.852-0.272 3.856-0.406 5.946-0.406v0c24.994 0.004 58.28 19.334 59.696 20.146zM949.916 525.956c18.608-2.756 42.29-7.602 52.634-9.802-10.088-5.298-34.402-17.012-52.996-17.012-1.882 0-3.674 0.090-5.344 0.346-18.412 2.726-25.292 7.632-27.852 11.262-1.416 2.064-1.882 4.216-1.386 6.594 1.296 6.278 8.762 9.726 21.018 9.726 4.124 0 8.836-0.376 13.926-1.114zM861.748 524.164c6.444 6.548 4.442 16.938-14.904 30.548-19.316 13.596-52.378 24.962-52.378 24.962s9.68-35.080 29.028-48.676c19.314-13.638 31.766-13.398 38.254-6.834zM863.164 522.736c2.846 2.892 4.142 6.428 3.824 10.192-0.648 7.12-7 15.010-18.97 23.41-19.346 13.612-51.52 24.75-52.904 25.218-0.678 0.24-1.506 0.076-2.002-0.436-0.558-0.512-0.768-1.25-0.588-1.988 0.436-1.46 10.118-35.922 29.796-49.79 10.886-7.662 20.386-11.548 28.2-11.548v0c5.056 0.002 9.468 1.704 12.644 4.942zM845.7 553.072c13.642-9.62 16.908-16.456 17.284-20.492 0.24-2.606-0.678-4.982-2.68-7.016-6.638-6.73-19.754-4.156-35.666 7.060-14.844 10.434-23.968 34.462-27.054 43.796 9.182-3.384 33.062-12.734 48.116-23.348zM936.35 557.228c-0.406-7.12 17.254-9.274 38.226-10.102s47.878 10.976 47.878 10.976-35.576 9.998-56.58 10.84c-20.958 0.826-29.134-4.624-29.524-11.714zM1023.13 556.58c0.648 0.256 1.024 0.934 0.964 1.626-0.030 0.722-0.496 1.296-1.204 1.506-1.476 0.406-35.998 10.058-56.926 10.9-26.588 1.084-31.030-8.024-31.316-13.31-0.090-1.566 0.466-3.026 1.612-4.322 3.976-4.368 15.402-6.624 38.256-7.542 0.738-0.030 1.506-0.046 2.228-0.046v0c20.746 0.016 45.332 10.722 46.386 11.188zM965.814 567.27c15.988-0.662 40.968-6.76 51.338-9.5-8.462-3.252-27.31-9.53-42.516-8.974-13.356 0.542-31.648 1.792-35.878 6.458-0.588 0.602-0.828 1.204-0.768 1.882 0.346 6.594 8.792 10.208 23.756 10.208 1.312 0.002 2.668-0.028 4.068-0.074zM881.456 562.602c5.646 5.268 4.382 13.986-11.262 25.88-15.552 11.894-42.486 23.366-42.486 23.366-0.030 0.016 6.534-30.668 22.118-42.532 15.568-11.848 25.986-12.028 31.63-6.714zM882.572 561.382c2.53 2.35 3.764 5.268 3.614 8.446-0.302 5.962-5.344 12.678-14.964 19.994-15.552 11.85-41.748 23.094-42.878 23.562-0.436 0.18-0.918 0.18-1.356-0.030-0.406-0.18-0.768-0.528-0.888-0.978-0.316-0.964 6.79-32.308 22.674-44.384 9.064-6.894 17.058-10.404 23.696-10.404v0c4.050-0.014 7.45 1.282 10.102 3.794zM869.186 587.158c10.976-8.356 13.476-14.122 13.642-17.51 0.12-2.198-0.738-4.142-2.53-5.826-5.796-5.434-16.62-2.966-29.494 6.85-12.12 9.214-18.578 30.232-20.702 38.272 7.514-3.388 26.92-12.526 39.084-21.786zM955.936 590.816c2.35-6.036 10.916-9.078 28.696-4.156 17.826 4.908 47.816 11.096 47.816 11.096s-38.468 15.672-56.248 10.75c-17.854-4.938-22.582-11.652-20.264-17.69zM985.054 585.216c17.554 4.846 47.396 11.006 47.726 11.052 0.678 0.136 1.114 0.662 1.204 1.326 0.030 0.678-0.316 1.28-0.934 1.536-1.174 0.482-29.254 11.82-48.63 11.82-3.298 0-6.202-0.346-8.612-1.008-11.352-3.132-18.382-7.242-20.882-12.21-1.204-2.38-1.296-4.952-0.346-7.438 1.356-3.478 5.028-7.588 14.814-7.588v0c4.368-0.004 9.622 0.868 15.66 2.51zM1027.224 598.178c-9.32-1.988-29.644-6.414-42.982-10.072-5.736-1.596-10.734-2.394-14.844-2.394v0c-4.502 0-10.238 0.948-12.030 5.646-0.678 1.746-0.618 3.388 0.24 5.028 1.446 2.876 5.916 7.046 19.030 10.674 2.154 0.602 4.786 0.904 7.798 0.904 14.168 0 33.846-6.534 42.788-9.786zM900.744 599.066c6.142 3.69 7.030 11.472-3.824 24.404-10.886 12.888-40.998 9.802-40.998 9.802s7.964-10.222 18.79-23.124c10.886-12.904 19.92-14.74 26.032-11.082zM901.542 597.772c2.8 1.716 4.532 4.156 5.058 7.15 0.858 5.164-2.032 11.728-8.552 19.482-7.798 9.29-24.872 10.674-34.342 10.674-4.622 0-7.768-0.302-7.874-0.316-0.588-0.046-0.994-0.406-1.234-0.888-0.21-0.496-0.15-1.084 0.18-1.506 0.090-0.106 8.084-10.434 18.82-23.184 7.438-8.808 14.528-13.28 21.108-13.28v0c2.424 0.002 4.742 0.634 6.836 1.868zM863.692 632.114c8.974 0 25.022-1.264 32.084-9.62 5.826-6.956 8.582-12.858 7.874-17.088-0.346-2.108-1.582-3.794-3.674-5.058-1.612-0.964-3.418-1.46-5.298-1.46v0c-5.584 0-12.090 4.216-18.82 12.21-7.768 9.26-14.092 17.224-16.998 20.898 1.278 0.074 2.92 0.118 4.832 0.118zM939.768 623.532c9.47-2.74 20.204 2.514 28.29 22.478 8.054 19.98-13.82 54.486-13.82 54.486s-12.436-24.57-20.522-44.564c-8.102-19.95-3.418-29.646 6.052-32.4zM969.878 645.256c8.386 20.702-13.024 54.878-13.97 56.308-0.346 0.618-1.084 0.994-1.762 0.934-0.708-0.046-1.326-0.436-1.642-1.084-0.15-0.256-12.618-24.886-20.672-44.714-4.696-11.638-5.524-20.778-2.44-27.114 1.882-3.9 5.268-6.638 9.786-7.934 1.762-0.512 3.524-0.784 5.238-0.784v0c7.108-0.016 17.286 4.228 25.462 24.388zM966.206 646.762c-6.76-16.62-15.988-24.164-25.91-21.32-3.448 0.994-5.916 2.966-7.316 5.856-2.53 5.194-1.642 13.46 2.59 23.892 6.232 15.416 15.236 33.8 18.85 41.132 4.996-8.742 18.018-34.114 11.786-49.56zM759.688 326.878c-5.826-12.12 2.846-26.438 38.468-38.602 35.666-12.15 85.004-17.962 85.004-17.962s-28.44 49.518-64.076 61.728c-35.638 12.134-53.66 6.896-59.396-5.164zM885.748 268.598c0.618 0.994 0.648 2.228 0.090 3.208-1.204 2.124-29.464 50.692-65.778 63.098-13.762 4.682-25.67 7.090-35.456 7.090-17.374 0-24.676-7.528-27.672-13.82-2.41-5.058-2.62-10.374-0.496-15.432 4.412-10.404 18.082-19.618 40.756-27.34 35.516-12.15 85.154-18.052 85.652-18.112 0.090-0.030 0.21-0.030 0.316-0.030 1.038-0.018 2.032 0.478 2.588 1.338zM818.088 329.122c27.266-9.29 50.6-41.928 59.078-54.922-14.468 2.002-50.57 7.648-77.988 16.998-26.076 8.912-34.552 17.932-37.082 23.938-1.476 3.464-1.326 6.88 0.346 10.404 3.238 6.73 10.886 10.328 22.148 10.328 9.124-0.018 20.384-2.292 33.498-6.746zM688.024 347.368c10.494 9.53 8.462 25.518-19.648 47.636-28.108 22.148-80.276 17.676-80.276 17.676s14.136-30.052 42.26-52.166 47.14-22.66 57.664-13.146zM690.026 345.11c4.696 4.232 7.090 9.56 6.88 15.432-0.376 10.856-9.35 23.26-26.618 36.902-20.642 16.23-53.342 18.638-70.986 18.638-7.030 0-11.472-0.376-11.472-0.376-0.994-0.090-1.882-0.618-2.38-1.536-0.466-0.858-0.528-1.912-0.12-2.832 0.588-1.264 14.754-30.94 43.134-53.252 16.56-13.054 31.166-19.678 43.464-19.678v0c7.152 0.032 13.25 2.26 18.098 6.702zM666.478 392.596c19.708-15.462 24.118-26.076 24.314-32.294 0.15-4.036-1.506-7.618-4.846-10.674-3.734-3.388-8.416-5.088-14-5.088v0c-10.734 0-24.434 6.352-39.702 18.382-21.138 16.636-34.342 38.076-39.22 46.928 13.428 0.542 51.49 0.074 73.454-17.254zM698.412 272.828c-7.558-12.858 0.496-29.148 38.316-44.986 37.85-15.884 93.164-24.932 93.164-24.932s-28.018 55.494-65.868 71.332c-37.864 15.886-58.114 11.412-65.612-1.414zM832.586 200.908c0.738 1.024 0.888 2.38 0.302 3.524-1.144 2.288-29.058 56.774-67.54 72.928-16.5 6.91-30.698 10.434-42.14 10.434-16.5 0-24.164-7.256-27.702-13.264-3.208-5.404-3.856-11.352-1.942-17.118 3.886-11.668 17.962-22.674 41.868-32.7 37.79-15.792 93.36-25.052 93.886-25.142 0.21-0.030 0.376-0.030 0.558-0.030 1.056 0.014 2.092 0.51 2.71 1.368zM762.714 271.158c28.938-12.12 52.422-49.052 60.838-63.684-15.974 2.966-56.278 11.232-85.516 23.47-27.462 11.534-35.908 21.906-38.106 28.606-1.326 3.976-0.888 7.798 1.386 11.564 3.856 6.608 11.202 9.936 21.876 9.936 10.584-0.016 23.88-3.344 39.522-9.892z" />
<glyph unicode="&#x62;" glyph-name="bulb" horiz-adv-x="851" d="M341.702 103.126c-9.396-1.646-15.92-5.446-19.75-11.491l-1.047-1.646-0.060-1.945c-0.598-18.194 5.027-30.044 13.226-38.393l191.544-9.217c2.184 1.436 4.309 3.022 6.105 4.967 5.446 5.865 7.93 13.645 7.212 22.413-0.628 7.81-4.429 14.214-10.593 19.6 0.030 0.030-187.594 16.159-186.636 15.71zM516.698 2.102c1.077 9.366-4.339 18.194-12.149 25.735 0 0-142.917 4.908-140.493 3.92-3.471-3.561-5.476-8.678-5.626-14.932-0.299-5.835-0.12-11.491 0.569-16.877l131.965-20.707c15.86 4.937 24.508 12.598 25.735 22.862zM362.081-14.326c3.262-10.563 8.618-19.959 16.069-27.829 13.406-14.094 32.168-21.845 52.846-21.845 16.787 0 33.694 5.177 48.956 14.962l1.795 1.646c3.681 4.698 4.608 9.396 4.309 13.645l-123.975 19.421zM665.151 588.463c-20.318 111.317-126.668 195.224-247.472 195.224-17.296 0-34.891-1.646-52.337-4.908-112.155-20.977-211.742-130.409-184.302-277.276 9.606-51.11 34.443-83.219 58.442-114.28 12.269-15.83 23.82-30.792 33.305-48.028 11.73-21.216 15.59-45.425 19.69-71.010 2.424-15.082 4.937-30.672 9.157-47.011 7.301-28.398 24.957-42.342 47.4-52.606-26.962-0.958-33.994-16.189-35.071-29.026-0.658-8.109 1.257-14.423 4.728-19.6l217.218-19.51c4.040 1.616 7.96 3.471 11.67 5.775l2.633 1.646 0.628 3.052c7.122 36.507-17.296 45.305-33.455 51.080-2.364 0.868-4.668 1.706-6.853 2.603-8.079 3.322-17.146 6.134-26.932 8.648 4.878 0.569 9.516 1.556 13.885 2.962 34.772 11.371 41.594 49.494 47.549 83.159 1.825 9.995 3.471 19.421 5.775 27.889 11.401 41.774 31.151 69.124 52.068 98.061 10.324 14.274 20.977 29.026 30.343 45.455 20.917 36.537 43.48 93.602 31.929 157.7zM423.934 402.575c-8.079 9.336-17.685 16.638-27.051 23.73-3.681 2.783-7.301 5.536-10.773 8.319 1.795-0.239 3.681-0.269 5.626-0.030 24.478 3.112 29.535 21.037 34.413 38.363 0.389 1.317 0.748 2.663 1.137 4.040 1.287-2.813 2.274-5.805 3.262-8.947 3.292-10.234 7.451-23.012 24.987-25.645 13.885-2.095 24.957 5.805 34.263 16.249-3.98-26.962-36.597-43.599-57.305-51.499-2.274-0.449-5.775-1.616-8.558-4.578zM624.784 534.421c-3.381-52.098-31.39-89.982-61.045-130.11-22.623-30.582-45.993-62.242-56.886-100.395-2.364-8.199-3.322-18.852-4.369-30.104-2.125-23.101-4.519-49.315-19.151-55.419-5.955-2.454-11.311-3.741-15.83-3.741-28.607 0-28.966 58.861-29.266 106.141-0.060 10.503-0.12 20.767-0.449 30.283l0.15 17.356c8.259-1.227 18.074 0.569 27.44 5.656 3.92 3.052 8.828 5.566 14.064 8.169 8.139 4.159 17.386 8.858 25.525 16.907 30.433 30.163 33.994 68.915 24.388 92.196-6.314 15.351-18.314 24.478-32.108 24.478-7.69 0-18.882-2.843-31.839-14.932-6.314 15.441-19.84 24.837-37.076 24.837-13.196 0-26.393-5.835-35.28-15.62-5.626-6.194-9.306-13.705-10.803-21.934-17.595 9.815-38.063 7.032-49.464-6.853-8.379-10.204-11.192-24.807-7.96-41.116 4.159-20.408 25.046-33.874 43.45-45.724 10.114-6.553 22.682-14.633 23.341-20.348 5.686-24.119 5.147-52.187 4.608-79.329-0.778-41.146-1.586-80.017 19.181-102.939 1.436-1.556 3.292-3.112 5.596-4.638-35.161 8.468-66.581 19.84-76.695 43.988-7.301 17.356-6.613 24.837-5.686 34.323 0.718 7.631 1.556 16.279-1.676 30.313-10.653 46.113-34.742 77.533-57.993 107.906-29.176 38.063-56.706 74.062-60.297 137.74-2.873 50.751 13.615 96.625 47.669 132.653 38.991 41.235 98.39 65.863 158.956 65.863 45.933 0 88.007-13.795 121.671-39.859 40.757-31.54 82.62-91.687 77.832-165.749zM842.002 474.094c0-22.592-18.314-40.906-40.906-40.906s-40.906 18.314-40.906 40.906c0 22.592 18.314 40.906 40.906 40.906s40.906-18.314 40.906-40.906zM94.201 474.094c0-22.592-18.314-40.906-40.906-40.906s-40.906 18.314-40.906 40.906c0 22.592 18.314 40.906 40.906 40.906s40.906-18.314 40.906-40.906zM176.043 769.234c0-22.592-18.314-40.906-40.906-40.906s-40.906 18.314-40.906 40.906c0 22.592 18.314 40.906 40.906 40.906s40.906-18.314 40.906-40.906zM772.189 769.234c0-22.592-18.314-40.906-40.906-40.906s-40.906 18.314-40.906 40.906c0 22.592 18.314 40.906 40.906 40.906s40.906-18.314 40.906-40.906zM217.338 174.704c0-22.592-18.314-40.906-40.906-40.906s-40.906 18.314-40.906 40.906c0 22.592 18.314 40.906 40.906 40.906s40.906-18.314 40.906-40.906zM717.937 174.704c0-22.592-18.314-40.906-40.906-40.906s-40.906 18.314-40.906 40.906c0 22.592 18.314 40.906 40.906 40.906s40.906-18.314 40.906-40.906zM478.455 907.394c0-22.592-18.314-40.906-40.906-40.906s-40.906 18.314-40.906 40.906c0 22.592 18.314 40.906 40.906 40.906s40.906-18.314 40.906-40.906z" />
<glyph unicode="&#x63;" glyph-name="camera" horiz-adv-x="1084" d="M1031.848 753.536h-257.466l-27.13 79.192c0 11.97-9.726 21.77-21.846 21.77h-366.904c-12.046 0-21.756-9.802-21.756-21.772l-25.428-79.192-259.256 0.002c-26.346 0-47.816-21.38-47.816-47.832v-170.352h308.262c46.16 79.040 131.978 132.068 230.244 132.068 98.206 0 184.054-53.026 230.214-132.068h306.772v170.354c0.014 26.452-21.468 47.83-47.89 47.83zM968.674 612.588c-30.548 0-55.134 24.554-55.134 54.922 0 30.352 24.586 55.074 55.134 55.074 30.338 0 54.892-24.736 54.892-55.074 0.002-30.368-24.57-54.922-54.892-54.922zM200.254 618.308h-95.002c-28.772 0-52.136 23.576-52.136 52.136 0 28.786 23.38 52.062 52.136 52.062h95.002c28.742 0 52.016-23.274 52.016-52.062 0.002-28.558-23.276-52.136-52.016-52.136zM1079.752 477.328v-237.14h-310.896c28.516 42.486 45.136 93.646 45.136 148.644 0 15.28-1.28 30.278-3.9 44.956-2.41 14.994-6.202 29.54-11.202 43.54h280.862zM1079.752 188.216v-98.854c0-26.452-21.484-47.862-47.908-47.862h-979.782c-26.346 0-47.816 21.41-47.816 47.862v98.854h356.124c47.682-44.79 111.878-72.146 182.382-72.146 70.46 0 134.672 27.356 182.338 72.146h354.662zM318.47 240.188h-314.208v237.14h245.194l-0.482-1.716c0.18 0.528 0.406 1.114 0.602 1.716h38.874c-4.998-13.986-8.822-28.546-11.232-43.54-2.59-14.694-3.886-29.69-3.886-44.956-0.014-55 16.562-106.142 45.138-148.644zM727.198 428.608c-18.322 84.824-93.872 148.824-184.43 148.824-90.574 0-166.454-64.002-184.686-148.824-2.606-12.844-4.050-26.106-4.050-39.852 0-104.050 84.688-188.646 188.736-188.646 104.26 0 188.63 84.598 188.63 188.646 0 13.746-1.414 27.010-4.2 39.852z" />
<glyph unicode="&#x64;" glyph-name="linkedin" d="M512 960c-282.886 0-512-229.114-512-512s229.114-512 512-512c282.886 0 512 229.114 512 512s-229.114 512-512 512zM402.119 231.355h-101.309v312.499h101.309v-312.499zM395.105 610.094c-10.91-10.91-25.717-16.365-44.42-16.365v0c-17.924 0-31.951 5.455-42.861 16.365s-16.365 24.158-16.365 39.744c0 16.365 5.455 29.613 17.145 39.744 10.91 10.131 25.717 15.586 44.42 15.586 17.924 0 31.951-5.455 42.861-15.586s16.365-23.379 17.145-39.744c-0.779-15.586-6.234-28.834-17.924-39.744zM775.403 231.355h-101.309v171.446c0 24.158-4.676 41.303-14.807 52.992s-23.379 17.145-39.744 17.145c-16.365 0-29.613-5.455-39.744-15.586-10.91-10.131-16.365-25.717-16.365-45.199v-181.577h-101.309v243.142l-1.559 70.916h98.971l3.117-42.861c23.379 35.848 53.772 52.992 91.178 52.992 36.627 0 65.461-12.469 88.061-37.406s33.51-59.227 33.51-104.426v-181.577z" />
<glyph unicode="&#x65;" glyph-name="eye" horiz-adv-x="1484" d="M889.065 383.546c0-81.117-65.759-146.876-146.876-146.876s-146.876 65.759-146.876 146.876c0 81.117 65.759 146.876 146.876 146.876s146.876-65.759 146.876-146.876zM906.602 664.095c-50.289 11.424-103.476 18.227-159.477 18.227-61.426 0-119.866-8.008-174.862-21.556-301.904-74.285-499.729-316.141-509.46-328.225l-15.155-18.858 16.017-18.141c12.917-14.668 321.279-359.541 683.49-359.541 362.555 0 658.891 345.304 671.348 360l14.955 17.653-14.093 18.37c-9.443 12.285-204.771 262.121-512.761 332.072zM592.183 605.769c49.169 11.826 100.836 19.145 154.942 19.145 48.853 0 95.382-6.171 139.873-15.988 74.084-47.791 123.368-130.86 123.368-225.38 0-147.881-120.297-268.178-268.206-268.178s-268.206 120.297-268.206 268.178c0.029 92.368 46.959 173.972 118.23 222.223zM747.154-6.593c-290.279 0-554.697 251.242-623.298 321.882 43.457 47.82 170.7 175.896 349.409 251.501-35.707-52.241-56.69-115.331-56.69-183.272 0-179.512 146.072-325.585 325.613-325.585s325.613 146.072 325.613 325.585c0 69.75-22.245 134.304-59.761 187.348 181.579-75.089 308.449-207.326 350.528-255.605-65.358-69.922-320.877-321.853-611.415-321.853zM742.188 694.435c20.982 0 38.004 17.021 38.004 38.004v189.558c0 20.982-17.021 38.004-38.004 38.004s-38.004-17.021-38.004-38.004v-189.558c0-20.982 16.993-38.004 38.004-38.004zM405.294 661.54c6.372-14.007 20.179-22.274 34.617-22.274 5.253 0 10.62 1.091 15.701 3.416 19.117 8.697 27.555 31.229 18.858 50.317l-78.504 172.508c-8.668 19.088-31.201 27.527-50.317 18.858-19.117-8.697-27.555-31.229-18.858-50.317l78.504-172.508zM176.154 484.009c10.132 0 20.236 4.019 27.728 11.998 14.352 15.299 13.605 39.353-1.694 53.733l-138.179 129.711c-15.299 14.38-39.353 13.605-53.704-1.694-14.352-15.299-13.605-39.353 1.694-53.733l138.15-129.74c7.348-6.86 16.677-10.276 26.005-10.276zM1028.736 642.682c5.138-2.325 10.448-3.416 15.73-3.416 14.438 0 28.244 8.267 34.617 22.274l78.476 172.508c8.697 19.117 0.258 41.649-18.83 50.317-19.145 8.697-41.649 0.258-50.346-18.858l-78.476-172.508c-8.697-19.088-0.258-41.62 18.83-50.317zM1474.101 677.758c-14.38 15.328-38.434 16.045-53.733 1.694l-138.179-129.74c-15.299-14.352-16.074-38.405-1.722-53.733 7.492-7.98 17.595-11.998 27.728-11.998 9.329 0 18.657 3.416 26.005 10.305l138.179 129.74c15.328 14.352 16.074 38.405 1.722 53.733z" />
<glyph unicode="&#x66;" glyph-name="facebook" d="M512 960c282.77 0 512-229.23 512-512 0-261.094-195.438-476.53-448-508.026v380.026h176l16 128h-192v64c0 35.346 28.654 64 64 64h128v128h-128c-106.040 0-192-85.96-192-192v-64h-96v-128h96v-380.026c-252.562 31.496-448 246.932-448 508.026 0 282.77 229.23 512 512 512z" />
<glyph unicode="&#x68;" glyph-name="web" horiz-adv-x="1316" d="M1209.014 75.104c0-20.207-16.327-36.776-36.736-36.776h-1029.052c-20.207 0-36.776 16.57-36.776 36.776v543.199h-106.449v-623.784c0-32.371 26.228-58.519 58.438-58.519h1198.627c32.371 0 58.559 26.148 58.559 58.519v623.784h-106.652v-543.199zM695.033 544.831h373.624c20.328 0 36.776 16.448 36.776 36.736 0 20.328-16.489 36.736-36.776 36.776h-373.624c-20.368 0-36.776-16.448-36.776-36.776 0-20.288 16.408-36.736 36.776-36.736zM695.033 413.123h373.624c20.328 0 36.776 16.408 36.776 36.736 0 20.368-16.489 36.776-36.776 36.776h-373.624c-20.368 0-36.776-16.408-36.776-36.776 0-20.328 16.408-36.736 36.776-36.736zM695.033 281.456h373.624c20.328 0 36.776 16.408 36.776 36.736s-16.489 36.736-36.776 36.736h-373.624c-20.368 0-36.776-16.408-36.776-36.736s16.408-36.736 36.776-36.736zM238.683 143.564h829.974c20.328 0 36.776 16.448 36.776 36.776 0 20.368-16.489 36.776-36.776 36.776h-829.974c-20.368 0-36.776-16.408-36.776-36.776s16.448-36.776 36.776-36.776zM238.683 281.415h303.183c20.288 0 36.736 16.408 36.736 36.736v263.416c0 20.328-16.408 36.736-36.736 36.736h-303.183c-20.328 0-36.776-16.408-36.776-36.776v-263.375c0-20.328 16.408-36.736 36.776-36.736zM1257.025 960h-1198.587c-32.21 0-58.438-26.188-58.438-58.559v-185.135h1315.665v185.135c-0.040 32.371-26.269 58.559-58.64 58.559zM155.229 794.789c-9.376-9.376-22.349-15.196-36.696-15.196-28.694 0-51.891 23.238-51.891 51.891 0 21.5 13.054 39.969 31.725 47.85 6.224 2.627 13.094 4.122 20.247 4.122 28.694 0 51.77-23.238 51.77-51.931 0.040-14.387-5.779-27.36-15.155-36.736zM300.394 779.674c-28.532 0-51.81 23.157-51.81 51.81s23.278 51.931 51.81 51.931c28.694 0 51.891-23.238 51.891-51.931 0.040-28.653-23.197-51.81-51.891-51.81zM482.336 779.674c-28.653 0-51.851 23.157-51.851 51.81s23.157 51.931 51.851 51.931 51.77-23.278 51.77-51.931c0.040-28.653-23.076-51.81-51.77-51.81z" />
<glyph unicode="&#x69;" glyph-name="instagram" d="M512 960c-282.886 0-512-229.114-512-512s229.114-512 512-512 512 229.114 512 512-229.114 512-512 512zM745.011 282.788c0-18.703-7.014-35.068-20.262-48.317s-29.613-20.262-48.317-20.262h-329.644c-18.703 0-35.068 7.014-48.317 20.262s-20.262 29.613-20.262 48.317v213.528h116.895c-6.234-14.807-9.352-31.172-9.352-48.317 0-35.068 12.469-64.682 36.627-89.619 24.938-24.938 54.551-36.627 89.619-36.627s64.682 12.469 89.619 36.627c24.938 24.938 36.627 54.551 36.627 89.619 0 17.145-3.117 33.51-9.352 48.317h116.895v-213.528zM424.718 448c0 24.158 8.572 44.42 25.717 61.565s37.406 25.717 61.565 25.717c24.158 0 44.42-8.572 61.565-25.717s25.717-37.406 25.717-61.565c0-24.158-8.572-44.42-25.717-61.565s-37.406-25.717-61.565-25.717c-24.158 0-45.199 8.572-62.344 25.717-16.365 16.365-24.938 37.406-24.938 61.565zM745.011 535.282h-141.833c-24.938 25.717-55.33 38.965-91.178 38.965s-66.24-13.248-91.178-38.965h-141.833v77.93c0 18.703 7.014 35.068 20.262 48.317s29.613 20.262 48.317 20.262h330.423c18.703 0 35.068-7.014 48.317-20.262s20.262-29.613 20.262-48.317v-77.93z" />
<glyph unicode="&#x6c;" glyph-name="m-prev" horiz-adv-x="1084" d="M650.068 170.24c-15.762 0-31.558 6.036-43.586 18.066l-216.15 216.092c-11.548 11.564-18.052 27.25-18.052 43.6s6.518 32.040 18.052 43.6l216.152 216.122c24.088 24.058 63.068 24.058 87.158 0 24.088-24.074 24.088-63.098 0-87.172l-172.524-172.548 172.522-172.522c24.088-24.074 24.088-63.098 0-87.172-12.030-12.030-27.808-18.066-43.572-18.066z" />
<glyph unicode="&#x6e;" glyph-name="next" horiz-adv-x="532" d="M37.97-64h-35.41v35.246l475.566 475.608-475.566 475.462v37.684h35.41l491.95-489.636v-44.688z" />
<glyph unicode="&#x70;" glyph-name="pencil" horiz-adv-x="1084" d="M817.938 911.274l-286.116-286.056-96.16 4.322 275.698 275.818c34.718 10.102 71.212 12.21 106.578 5.916zM999.312 617.268l-275.712-275.682-4.442 96.19 286.176 286.1c6.264-35.304 4.216-71.752-6.022-106.608zM647.974 265.918l-50.136-50.046-320.894-150.18c-9.214 23.080-27.28 47.696-48.404 68.834-21.168 21.034-45.738 39.206-68.774 48.374l150.194 320.908 50.016 50.076 131.346-6.022-6.474-127.536-0.12-0.256c0-0.332-0.046-0.678 0-0.918 0-1.174 0-2.56 0.302-3.764 0.18-1.642 0.512-3.026 0.874-4.502l0.076-0.060c0.226-0.888 0.452-1.612 0.738-2.41 2.77-7.212 8.596-12.904 15.808-15.852 0.798-0.286 1.552-0.558 2.44-0.798 2.018-0.588 4.080-0.934 6.338-1.114 1.13-0.090 2.018 0 3.102 0.030l127.52 6.504 6.048-131.268zM205.314 20.526l-94.098-35.576c0 0-0.106-0.090-0.18-0.15l-4.368-2.198c-8.296-3.056-18.052-1.234-24.69 5.404-6.638 6.534-8.522 16.32-5.374 24.616l2.184 4.412c0.136 0.090 0.226 0.18 0.226 0.18l35.53 94.128c10.208-3.554 29.916-14.092 53.296-37.518 23.38-23.382 34.070-43.21 37.474-53.298zM985.898 783.618l-307.344-307.328-3.856-0.588-78.302-3.614c-0.24-0.272-0.558 0.030-0.828-0.226l-10.81-0.302c-0.828-0.316-1.1 0-1.1 0-4.412 1.1-8.582 3.056-11.88 6.368-4.142 3.584-6.352 9.094-6.352 14.664l0.512 7.196 3.93 80.758 0.512 3.87 307.372 307.33c22.93-10.78 44.55-25.73 63.338-44.518 19.106-19.106 34.028-40.68 44.808-63.61z" />
<glyph unicode="&#x71;" glyph-name="uniF000" d="M0 960l1024-1024h-1024z" />
<glyph unicode="&#x72;" glyph-name="m-down" horiz-adv-x="1084" d="M542.014 278.308c-15.762 0-31.558 6.036-43.6 18.052l-216.138 216.108c-24.058 24.074-24.058 63.112 0 87.188 24.118 24.042 63.098 24.042 87.188 0l172.552-172.552 172.52 172.55c24.104 24.042 63.068 24.042 87.188 0 24.058-24.074 24.058-63.112 0-87.188l-216.124-216.106c-12.028-12.014-27.822-18.052-43.586-18.052z" />
<glyph unicode="&#x73;" glyph-name="m-next" horiz-adv-x="1084" d="M433.932 170.24c-15.762 0-31.542 6.036-43.586 18.066-24.088 24.074-24.088 63.098 0 87.172l172.566 172.522-172.55 172.552c-24.088 24.074-24.088 63.098 0 87.172 24.088 24.058 63.068 24.058 87.188 0l216.106-216.122c24.074-24.074 24.074-63.112 0-87.188l-216.11-216.108c-12.060-12.030-27.836-18.066-43.614-18.066z" />
<glyph unicode="&#x75;" glyph-name="m-top" horiz-adv-x="1084" d="M758.106 278.308c-15.778 0-31.558 6.052-43.6 18.052l-172.506 172.52-172.522-172.52c-24.104-24.028-63.082-24.028-87.172 0-24.088 24.088-24.088 63.128 0 87.188l216.106 216.122c24.104 24.042 63.068 24.042 87.188 0l216.106-216.122c24.088-24.058 24.088-63.098 0-87.188-12.058-11.998-27.836-18.052-43.6-18.052z" />
<glyph unicode="&#x76;" glyph-name="prev" horiz-adv-x="532" d="M494.51 960h35.41v-35.246l-475.566-475.608 475.566-475.462v-37.684h-35.41l-491.95 489.636v44.688z" />
<glyph unicode="&#x77;" glyph-name="print" horiz-adv-x="1356" d="M803.33 373.805h300.611c15.116 0 27.374 12.258 27.374 27.374s-12.258 27.374-27.374 27.374h-300.611c-15.116 0-27.374-12.258-27.374-27.374s12.258-27.374 27.374-27.374zM803.33 484.891h300.611c15.116 0 27.374 12.258 27.374 27.374s-12.258 27.374-27.374 27.374h-300.611c-15.116 0-27.374-12.258-27.374-27.374s12.258-27.374 27.374-27.374zM803.33 698.843h300.611c15.116 0 27.374 12.258 27.374 27.374s-12.258 27.374-27.374 27.374h-300.611c-15.116 0-27.374-12.258-27.374-27.374s12.258-27.374 27.374-27.374zM1131.315 290.063c0 15.145-12.258 27.403-27.374 27.403h-300.611c-15.116 0-27.374-12.258-27.374-27.403 0-15.087 12.258-27.344 27.374-27.344h300.611c15.116 0 27.374 12.258 27.374 27.344zM803.33 595.978h300.611c15.116 0 27.374 12.258 27.374 27.374s-12.258 27.374-27.374 27.374h-300.611c-15.116 0-27.374-12.258-27.374-27.374s12.258-27.374 27.374-27.374zM1327.028 832.796h-75.374c-0.884 5.569-2.858 10.932-6.659 15.175-4.066 4.597-101.628 112.029-291.359 112.029-143.263 0-233.93-74.608-272.324-114.652-38.365 40.044-129.031 114.652-272.295 114.652-189.761 0-287.293-107.433-291.389-112.029-3.742-4.243-5.746-9.606-6.6-15.175h-81.738c-16.177 0-29.289-13.112-29.289-29.289v-838.217c0-16.236 13.112-29.348 29.289-29.348h1297.739c16.177 0 29.289 13.112 29.289 29.348v838.217c0 16.177-13.142 29.289-29.289 29.289zM409.046 900.567c91.904 0 157.702-36.096 197.893-67.772 20.479-16.118 34.416-31.145 41.517-39.573v-687.617c-48.619 33.444-129.945 74.284-236.877 74.284-108.67 0-192.766-34.947-241.974-62.32v698.372c4.626 4.302 11.963 10.313 20.744 16.855 36.597 27.344 108.877 67.772 218.696 67.772zM648.869-5.451h-590.262v779.669h51.565v-711.425c0-11.521 6.659-21.923 17.031-26.814 10.401-4.95 22.718-3.389 31.558 3.86 1.002 0.796 100.361 80.619 252.818 80.619 126.291 0 212.361-68.243 237.289-90.696v-35.212zM714.225 774.217v18.917c7.101 8.398 21.245 23.425 41.93 39.661 40.368 31.646 106.284 67.772 197.51 67.772 109.849 0 182.129-40.457 218.696-67.772 8.781-6.541 16.088-12.552 20.685-16.825v-698.401c-49.179 27.403-133.274 62.32-241.945 62.32-106.902 0-188.258-40.869-236.877-74.284v668.611zM1297.709-5.451h-590.262v29.348c11.786 11.58 102.895 96.56 243.654 96.56 152.457 0 251.816-79.823 252.729-80.56 8.869-7.366 21.186-8.869 31.587-3.978 10.431 4.832 17.061 15.322 17.061 26.873v711.425h45.23v-779.669zM260.832 475.020h270.438c13.466 0 24.427 10.961 24.427 24.457v229.775c0 13.495-10.961 24.457-24.427 24.457h-270.438c-13.466 0-24.427-10.961-24.427-24.457v-229.805c0-13.495 10.961-24.427 24.427-24.427zM245.746 262.836h300.582c15.116 0 27.374 12.258 27.374 27.344 0 15.145-12.258 27.403-27.374 27.403h-300.582c-15.116 0-27.374-12.258-27.374-27.403 0-15.087 12.258-27.344 27.374-27.344zM245.746 371.506h300.582c15.116 0 27.374 12.258 27.374 27.374 0 15.145-12.258 27.374-27.374 27.374h-300.582c-15.116 0-27.374-12.258-27.374-27.374s12.258-27.374 27.374-27.374z" />
<glyph unicode="&#x78;" glyph-name="close" d="M584.602 448l424.346 422.604c20.020 19.968 20.122 52.378 0.154 72.396-19.968 20.070-52.378 20.172-72.448 0.154l-424.654-422.91-424.652 422.86c-20.070 19.968-52.428 19.916-72.396-0.154-19.968-20.020-19.916-52.428 0.154-72.396l424.344-422.554-424.346-422.554c-20.070-19.916-20.122-52.378-0.154-72.396 9.984-10.036 23.092-15.156 36.25-15.156 13.056 0 26.112 5.018 36.148 14.9l424.652 422.912 424.652-422.912c9.984-9.882 23.092-14.9 36.148-14.9 13.158 0 26.316 5.12 36.3 15.104 19.968 20.020 19.866 52.48-0.154 72.396l-424.344 422.606z" />
<glyph unicode="&#x7a;" glyph-name="menu" horiz-adv-x="1280" d="M79.168 799.68h1121.536c43.776 0 79.296 35.264 79.296 79.424 0 43.072-35.52 78.848-79.232 78.848h-1121.6c-43.392 0-79.168-35.776-79.168-78.848 0-44.16 35.776-79.424 79.168-79.424zM1200.768 527.232h-1121.6c-43.392 0-79.168-35.776-79.168-79.104 0-44.096 35.776-79.296 79.168-79.296h1121.536c43.776 0 79.232 35.2 79.232 79.488 0.064 43.136-35.456 78.912-79.168 78.912zM1200.768 96.256h-1121.6c-43.392 0-79.168-35.584-79.168-78.912 0-44.096 35.776-79.232 79.168-79.232h1121.536c43.776 0 79.232 35.136 79.232 79.232 0.064 43.328-35.456 78.912-79.168 78.912z" />
</font>
</defs>
</svg>
