<?xml version="1.0" encoding="UTF-8" standalone="no"?>
<svg width="19px" height="24px" viewBox="0 0 19 24" version="1.1" xmlns="http://www.w3.org/2000/svg" xmlns:xlink="http://www.w3.org/1999/xlink">
    <!-- Generator: Sketch 40 (33762) - http://www.bohemiancoding.com/sketch -->
    <title>Fill 2753 + Fill 2754</title>
    <desc>Created with Sketch.</desc>
    <defs></defs>
    <g id="Welcome" stroke="none" stroke-width="1" fill="none" fill-rule="evenodd">
        <g id="aw-copy-3" transform="translate(-600.000000, -4459.000000)" fill="#73E5D0">
            <g id="Fill-2753-+-Fill-2754" transform="translate(600.000000, 4459.000000)">
                <path d="M2.11111111,7.38888889 L2.11111111,6.33333333 C2.11111111,5.75066667 2.58505556,5.27777778 3.16666667,5.27777778 C3.74827778,5.27777778 4.22222222,5.75066667 4.22222222,6.33333333 L4.22222222,7.38888889 L2.11111111,7.38888889 Z M4.22222222,17.6246111 L3.16666667,19.2079444 L2.11111111,17.6246111 L2.11111111,9.5 L4.22222222,9.5 L4.22222222,17.6246111 Z M3.16666667,3.16666667 C1.42077778,3.16666667 0,4.58744444 0,6.33333333 L0,18.2642778 L3.16666667,23.0142778 L6.33333333,18.2642778 L6.33333333,6.33333333 C6.33333333,4.58744444 4.91255556,3.16666667 3.16666667,3.16666667 L3.16666667,3.16666667 Z" id="Fill-2753"></path>
                <path d="M10.5555556,21.1111111 L10.5555556,17.9444444 L13.7222222,17.9444444 L13.7222222,15.8333333 L10.5555556,15.8333333 L10.5555556,12.6666667 L13.7222222,12.6666667 L13.7222222,10.5555556 L10.5555556,10.5555556 L10.5555556,7.38888889 L13.7222222,7.38888889 L13.7222222,5.27777778 L10.5555556,5.27777778 L10.5555556,2.11111111 L16.8888889,2.11111111 L16.891,21.1111111 L10.5555556,21.1111111 Z M16.8888889,0 L10.5555556,0 C9.39127778,0 8.44444444,0.947888889 8.44444444,2.11111111 L8.44444444,21.1111111 C8.44444444,22.2753889 9.39127778,23.2222222 10.5555556,23.2222222 L16.8888889,23.2222222 C18.0531667,23.2222222 19,22.2753889 19,21.1111111 L19,2.11111111 C19,0.947888889 18.0531667,0 16.8888889,0 L16.8888889,0 Z" id="Fill-2754"></path>
            </g>
        </g>
    </g>
</svg>