<?xml version="1.0" encoding="UTF-8" standalone="no"?>
<svg width="58px" height="58px" viewBox="0 0 58 58" version="1.1" xmlns="http://www.w3.org/2000/svg" xmlns:xlink="http://www.w3.org/1999/xlink">
    <!-- Generator: Sketch 40.1 (33804) - http://www.bohemiancoding.com/sketch -->
    <title>Artboard</title>
    <desc>Created with Sketch.</desc>
    <defs></defs>
    <g id="Page-1" stroke="none" stroke-width="1" fill="none" fill-rule="evenodd">
        <g id="Artboard" stroke="#FFFFFF" stroke-width="0.948275862" fill="#73E5D0">
            <path d="M28.5,41.8571429 C18.0875,41.8571429 9.6275,32.6617143 6.6725,28.9974286 C9.62,25.3305714 18.05,16.1428571 28.5,16.1428571 C38.9125,16.1428571 47.3725,25.3382857 50.3275,29.0025714 C47.38,32.6694286 38.95,41.8571429 28.5,41.8571429 M55.5425,27.5188571 C55.0825,26.8451429 44.055,11 28.5,11 C12.945,11 1.9175,26.8451429 1.4575,27.5188571 C0.8475,28.4085714 0.8475,29.5914286 1.4575,30.4811429 C1.9175,31.1548571 12.945,47 28.5,47 C44.055,47 55.0825,31.1548571 55.5425,30.4811429 C56.1525,29.5914286 56.1525,28.4085714 55.5425,27.5188571" id="Fill-3618"></path>
            <path d="M28.5,32.75 C25.604625,32.75 23.25,30.395375 23.25,27.5 C23.25,24.60725 25.604625,22.25 28.5,22.25 C31.395375,22.25 33.75,24.60725 33.75,27.5 C33.75,30.395375 31.395375,32.75 28.5,32.75 M28.5,17 C22.70925,17 18,21.70925 18,27.5 C18,33.29075 22.70925,38 28.5,38 C34.29075,38 39,33.29075 39,27.5 C39,21.70925 34.29075,17 28.5,17" id="Fill-3620"></path>
        </g>
    </g>
</svg>