<?xml version="1.0" encoding="UTF-8" standalone="no"?>
<svg width="57px" height="38px" viewBox="0 0 57 38" version="1.1" xmlns="http://www.w3.org/2000/svg" xmlns:xlink="http://www.w3.org/1999/xlink">
    <!-- Generator: Sketch 40 (33762) - http://www.bohemiancoding.com/sketch -->
    <title>Group 8</title>
    <desc>Created with Sketch.</desc>
    <defs></defs>
    <g id="Welcome" stroke="none" stroke-width="1" fill="none" fill-rule="evenodd">
        <g id="aw-copy-3" transform="translate(-452.000000, -2743.000000)" stroke-width="0.948275862" stroke="#FFFFFF" fill="#73E5D0">
            <g id="Group-8" transform="translate(453.000000, 2744.000000)">
                <g id="Group-5">
                    <path d="M27.5,30.8571429 C17.0875,30.8571429 8.6275,21.6617143 5.6725,17.9974286 C8.62,14.3305714 17.05,5.14285714 27.5,5.14285714 C37.9125,5.14285714 46.3725,14.3382857 49.3275,18.0025714 C46.38,21.6694286 37.95,30.8571429 27.5,30.8571429 M54.5425,16.5188571 C54.0825,15.8451429 43.055,0 27.5,0 C11.945,0 0.9175,15.8451429 0.4575,16.5188571 C-0.1525,17.4085714 -0.1525,18.5914286 0.4575,19.4811429 C0.9175,20.1548571 11.945,36 27.5,36 C43.055,36 54.0825,20.1548571 54.5425,19.4811429 C55.1525,18.5914286 55.1525,17.4085714 54.5425,16.5188571" id="Fill-3618"></path>
                    <path d="M27.5,21.75 C24.604625,21.75 22.25,19.395375 22.25,16.5 C22.25,13.60725 24.604625,11.25 27.5,11.25 C30.395375,11.25 32.75,13.60725 32.75,16.5 C32.75,19.395375 30.395375,21.75 27.5,21.75 M27.5,6 C21.70925,6 17,10.70925 17,16.5 C17,22.29075 21.70925,27 27.5,27 C33.29075,27 38,22.29075 38,16.5 C38,10.70925 33.29075,6 27.5,6" id="Fill-3620"></path>
                </g>
            </g>
        </g>
    </g>
</svg>