<?xml version="1.0" encoding="UTF-8" standalone="no"?>
<svg width="54px" height="48px" viewBox="0 0 54 48" version="1.1" xmlns="http://www.w3.org/2000/svg" xmlns:xlink="http://www.w3.org/1999/xlink">
    <!-- Generator: Sketch 40 (33762) - http://www.bohemiancoding.com/sketch -->
    <title>Group 9</title>
    <desc>Created with Sketch.</desc>
    <defs></defs>
    <g id="Welcome" stroke="none" stroke-width="1" fill="none" fill-rule="evenodd">
        <g id="aw-copy-3" transform="translate(-735.000000, -2738.000000)" stroke="#FFFFFF" fill="#73E5D0">
            <g id="Group-9" transform="translate(736.000000, 2739.000000)">
                <g id="Fill-4346-+-Fill-4347-+-Fill-4348">
                    <path d="M49.8333333,0 L8.66666667,0 C7.47066667,0 6.5,0.981333333 6.5,2.19047619 L6.5,4.38095238 L47.6666667,4.38095238 L47.6666667,26.2857143 L30.3333333,26.2857143 L30.3333333,30.6666667 L47.6666667,30.6666667 L47.6666667,32.8571429 L30.3333333,32.8571429 C29.1373333,32.8571429 28.1666667,33.8384762 28.1666667,35.047619 L28.1666667,41.6190476 L21.6666667,41.6190476 L21.6666667,46 L39,46 L39,41.6190476 L32.5,41.6190476 L32.5,37.2380952 L49.8333333,37.2380952 C51.0293333,37.2380952 52,36.2589524 52,35.047619 L52,2.19047619 C52,0.981333333 51.0293333,0 49.8333333,0" id="Fill-4346"></path>
                    <path d="M6.5,10.952381 L21.6666667,10.952381 L21.6666667,13.1428571 L6.5,13.1428571 L6.5,10.952381 Z M19.5,32.8571429 L19.5,37.2380952 L21.6666667,37.2380952 C24.0565,37.2380952 26,35.2754286 26,32.8571429 L26,10.952381 C26,8.53847619 24.0565,6.57142857 21.6666667,6.57142857 L6.5,6.57142857 C4.11016667,6.57142857 2.16666667,8.53847619 2.16666667,10.952381 L2.16666667,17.526 L21.6666667,17.5238095 L21.6666667,26.2857143 L19.5,26.2857143 L19.5,30.6666667 L21.6666667,30.6666667 L21.6666667,32.8571429 L19.5,32.8571429 Z" id="Fill-4347"></path>
                    <path d="M4.33333333,39.4285714 L13.0043333,39.4285714 L13.0043333,41.6190476 L4.33333333,41.6190476 L4.33333333,39.4285714 Z M13,24.0952381 L13.0021667,35.047619 L4.33333333,35.047619 L4.33333333,24.0952381 L13,24.0952381 Z M13,19.7142857 L4.33333333,19.7142857 C1.9435,19.7142857 0,21.6813333 0,24.0952381 L0,41.6190476 C0,44.0373333 1.9435,46 4.33333333,46 L13,46 C15.3898333,46 17.3333333,44.0373333 17.3333333,41.6190476 L17.3333333,24.0952381 C17.3333333,21.6813333 15.3898333,19.7142857 13,19.7142857 L13,19.7142857 Z" id="Fill-4348"></path>
                </g>
            </g>
        </g>
    </g>
</svg>