<?xml version="1.0" encoding="UTF-8" standalone="no"?>
<svg width="44px" height="44px" viewBox="0 0 44 44" version="1.1" xmlns="http://www.w3.org/2000/svg" xmlns:xlink="http://www.w3.org/1999/xlink">
    <!-- Generator: Sketch 40 (33762) - http://www.bohemiancoding.com/sketch -->
    <title>Group 10</title>
    <desc>Created with Sketch.</desc>
    <defs></defs>
    <g id="Welcome" stroke="none" stroke-width="1" fill="none" fill-rule="evenodd">
        <g id="aw-copy-3" transform="translate(-994.000000, -2741.000000)" fill="#73E5D0">
            <g id="Group-10" transform="translate(994.000000, 2741.000000)">
                <g id="Group">
                    <polygon id="Fill-1086" points="35.2 10.952381 24.2 10.952381 24.2 15.3333333 35.2 15.3333333"></polygon>
                    <polygon id="Fill-1087" points="35.2 19.7142857 24.2 19.7142857 24.2 24.0952381 35.2 24.0952381"></polygon>
                    <polygon id="Fill-1088" points="30.8 28.4761905 24.2 28.4761905 24.2 32.8571429 30.8 32.8571429"></polygon>
                    <polygon id="Fill-1089" points="19.8 10.952381 13.2 10.952381 13.2 15.3333333 19.8 15.3333333"></polygon>
                    <polygon id="Fill-1090" points="19.8 19.7142857 8.8 19.7142857 8.8 24.0952381 19.8 24.0952381"></polygon>
                    <polygon id="Fill-1091" points="19.8 28.4761905 8.8 28.4761905 8.8 32.8571429 19.8 32.8571429"></polygon>
                    <path d="M39.59362,39.4296667 L4.40022,39.4296667 L4.40022,4.38204762 L39.60022,4.38204762 L39.59362,39.4296667 Z M39.60022,0.0010952381 L4.40022,0.0010952381 C1.97362,0.0010952381 0.000220000002,1.96595238 0.000220000002,4.38204762 L0.000220000002,39.4296667 C0.000220000002,41.8457619 1.97362,43.810619 4.40022,43.810619 L39.60022,43.810619 C42.02682,43.810619 44.00022,41.8457619 44.00022,39.4296667 L44.00022,4.38204762 C44.00022,1.96595238 42.02682,0.0010952381 39.60022,0.0010952381 L39.60022,0.0010952381 Z" id="Fill-1092"></path>
                </g>
            </g>
        </g>
    </g>
</svg>