<?xml version="1.0" encoding="UTF-8" standalone="no"?>
<svg width="60px" height="59px" viewBox="0 0 60 59" version="1.1" xmlns="http://www.w3.org/2000/svg" xmlns:xlink="http://www.w3.org/1999/xlink">
    <!-- Generator: Sketch 40 (33762) - http://www.bohemiancoding.com/sketch -->
    <title>Group 7</title>
    <desc>Created with Sketch.</desc>
    <defs></defs>
    <g id="Welcome" stroke="none" stroke-width="1" fill="none" fill-rule="evenodd">
        <g id="aw-copy-3" transform="translate(-147.000000, -2738.000000)" stroke="#FFFFFF" fill="#73E5D0">
            <g id="Group-7" transform="translate(148.000000, 2739.000000)">
                <g id="Group">
                    <polygon id="Fill-1580" points="41.8733974 19.7051282 32.0208333 19.7051282 32.0208333 24.6314103 41.8733974 24.6314103"></polygon>
                    <polygon id="Fill-1581" points="7.38942308 24.6314103 24.6314103 24.6314103 24.6314103 19.7051282 7.38942308 19.7051282"></polygon>
                    <polygon id="Fill-1582" points="19.7051282 27.0945513 7.38942308 27.0945513 7.38942308 32.0208333 19.7051282 32.0208333"></polygon>
                    <path d="M44.3365385,4.92628205 L44.3340753,12.3157051 L4.92628205,12.3157051 L4.92628205,4.92628205 L44.3365385,4.92628205 Z M4.92628205,17.2419872 L44.3340753,17.2419872 L44.3316122,24.6314103 L49.2628205,24.6314103 L49.2628205,4.92628205 C49.2628205,2.2094375 47.053383,0 44.3365385,0 L4.92628205,0 C2.2094375,0 0,2.2094375 0,4.92628205 L0,34.4839744 C0,37.2008189 2.2094375,39.4102564 4.92628205,39.4102564 L24.6314103,39.4102564 L24.6314103,34.4839744 L4.92628205,34.4839744 L4.92628205,17.2419872 Z" id="Fill-1583"></path>
                    <path d="M32.0208333,39.4102564 C32.0208333,35.3362212 35.3362212,32.0208333 39.4102564,32.0208333 C43.4842917,32.0208333 46.7996795,35.3362212 46.7996795,39.4102564 C46.7996795,43.4867548 43.4842917,46.7996795 39.4102564,46.7996795 C35.3362212,46.7996795 32.0208333,43.4867548 32.0208333,39.4102564 L32.0208333,39.4102564 Z M57.671984,54.1891026 L49.6741651,46.1912837 C50.964851,44.2429391 51.7259615,41.9152708 51.7259615,39.4102564 C51.7259615,32.6193766 46.2011362,27.0945513 39.4102564,27.0945513 C32.6193766,27.0945513 27.0945513,32.6193766 27.0945513,39.4102564 C27.0945513,46.2011362 32.6193766,51.7259615 39.4102564,51.7259615 C41.917734,51.7259615 44.2429391,50.964851 46.1912837,49.6741651 L54.1891026,57.6744471 L57.671984,54.1891026 Z" id="Fill-1584"></path>
                </g>
            </g>
        </g>
    </g>
</svg>