<?xml version="1.0" encoding="UTF-8" standalone="no"?>
<svg width="24px" height="22px" viewBox="0 0 24 22" version="1.1" xmlns="http://www.w3.org/2000/svg" xmlns:xlink="http://www.w3.org/1999/xlink">
    <!-- Generator: Sketch 40 (33762) - http://www.bohemiancoding.com/sketch -->
    <title>Fill 1327</title>
    <desc>Created with Sketch.</desc>
    <defs></defs>
    <g id="Welcome" stroke="none" stroke-width="1" fill="none" fill-rule="evenodd">
        <g id="aw-copy-3" transform="translate(-284.000000, -4459.000000)" fill="#73E5D0">
            <g id="Fill-1327" transform="translate(284.000000, 4459.000000)">
                <path d="M17.9473684,19.6842105 C16.3517895,19.6842105 15.0526316,18.3850526 15.0526316,16.7894737 C15.0526316,15.1938947 16.3517895,13.8947368 17.9473684,13.8947368 C19.5429474,13.8947368 20.8421053,15.1938947 20.8421053,16.7894737 C20.8421053,18.3850526 19.5429474,19.6842105 17.9473684,19.6842105 L17.9473684,19.6842105 Z M15.0526316,4.63157895 L15.0526316,3.15642105 C15.0526316,2.69210526 15.4301053,2.31578947 15.8932632,2.31578947 C16.2637895,2.31578947 16.5868421,2.55431579 16.6956842,2.90978947 L19.4387368,11.8221053 C18.9628421,11.6785263 18.4695789,11.5789474 17.9473684,11.5789474 C16.8763158,11.5789474 15.8816842,11.9054737 15.0526316,12.4612632 L15.0526316,11.5789474 L15.0526316,4.63157895 Z M10.4210526,6.94736842 L12.7368421,6.94736842 L12.7368421,9.26315789 L10.4210526,9.26315789 L10.4210526,6.94736842 Z M8.10526316,12.4612632 C7.27621053,11.9054737 6.28157895,11.5789474 5.21052632,11.5789474 C4.68831579,11.5789474 4.19505263,11.6785263 3.71915789,11.8221053 L6.46221053,2.90978947 C6.57105263,2.55431579 6.89410526,2.31578947 7.26463158,2.31578947 C7.72778947,2.31578947 8.10526316,2.69210526 8.10526316,3.15642105 L8.10526316,4.63157895 L8.10526316,11.5789474 L8.10526316,12.4612632 Z M5.21052632,19.6842105 C3.61494737,19.6842105 2.31578947,18.3850526 2.31578947,16.7894737 C2.31578947,15.1938947 3.61494737,13.8947368 5.21052632,13.8947368 C6.80610526,13.8947368 8.10526316,15.1938947 8.10526316,16.7894737 C8.10526316,18.3850526 6.80610526,19.6842105 5.21052632,19.6842105 L5.21052632,19.6842105 Z M23.1069474,15.8701053 L18.9095789,2.22894737 C18.4985263,0.896210526 17.2862105,0 15.8932632,0 C14.1529474,0 12.7368421,1.41610526 12.7368421,3.15642105 L12.7368421,4.63157895 L10.4210526,4.63157895 L10.4210526,3.15642105 C10.4210526,1.41610526 9.00494737,0 7.26463158,0 C5.87168421,0 4.65936842,0.896210526 4.24831579,2.22894737 L0.0509473684,15.8701053 C0.0173684211,15.9801053 0,16.0947368 0,16.2105263 L0,16.7894737 C0,19.6633684 2.33778947,22 5.21052632,22 C8.08326316,22 10.4210526,19.6633684 10.4210526,16.7894737 L10.4210526,11.5789474 L12.7368421,11.5789474 L12.7368421,16.7894737 C12.7368421,19.6633684 15.0746316,22 17.9473684,22 C20.8201053,22 23.1578947,19.6633684 23.1578947,16.7894737 L23.1578947,16.2105263 C23.1578947,16.0947368 23.1405263,15.9801053 23.1069474,15.8701053 L23.1069474,15.8701053 Z"></path>
            </g>
        </g>
    </g>
</svg>